<svg width="300" height="198" viewBox="0 0 300 198" fill="none" xmlns="http://www.w3.org/2000/svg">
<rect width="300" height="198" rx="26" fill="#404040"/>
<path d="M139.176 164.04C138.835 164.04 138.323 163.912 137.64 163.656C115.624 155.805 100.136 142.323 91.176 123.208C90.5787 122.013 90.0667 120.776 89.64 119.496C89.2133 118.216 88.7867 117.021 88.36 115.912C86.4827 116.083 84.648 116.253 82.856 116.424C81.064 116.509 79.272 116.552 77.48 116.552H74.28C69.16 135.155 61.608 146.376 51.624 150.216C49.832 150.899 47.9547 151.453 45.992 151.88C44.0293 152.307 41.9387 152.52 39.72 152.52H39.336C36.1787 152.52 34.6 151.24 34.6 148.68C34.6 146.632 35.24 145.608 36.52 145.608C36.6907 145.608 37.8 146.376 39.848 147.912C41.896 149.448 43.9013 150.216 45.864 150.216C53.8 150.216 61.3947 138.824 68.648 116.04L63.656 115.272C59.3893 128.755 55.1653 137.843 50.984 142.536C50.5573 142.963 50.1733 143.176 49.832 143.176C49.576 143.176 49.448 142.963 49.448 142.536C49.448 142.195 49.6187 141.811 49.96 141.384C51.9227 139.08 53.8853 135.709 55.848 131.272C57.8107 126.835 59.7307 121.331 61.608 114.76C55.464 113.053 50.984 110.451 48.168 106.952C46.376 104.477 45.48 101.832 45.48 99.016C45.48 95.688 47.144 92.104 50.472 88.264C53.8 84.424 56.8293 82.504 59.56 82.504C60.1573 82.504 60.4987 82.632 60.584 82.888C60.4987 82.888 60.4133 82.9307 60.328 83.016C53.16 86.4293 49.576 90.6533 49.576 95.688C49.576 98.248 50.4293 100.765 52.136 103.24C54.3547 106.568 57.8533 109.299 62.632 111.432C63.3147 108.872 63.9547 106.312 64.552 103.752C65.1493 101.107 65.7467 98.4613 66.344 95.816C65.832 96.328 65.192 96.8827 64.424 97.48C63.7413 98.0773 62.9307 98.7173 61.992 99.4C60.456 98.376 59.688 96.7973 59.688 94.664C59.688 93.8107 60.1573 92.744 61.096 91.464C62.0347 90.0987 62.8453 89.416 63.528 89.416C64.296 92.232 65.3627 93.8107 66.728 94.152C67.1547 92.4453 67.496 90.824 67.752 89.288C68.0933 87.6667 68.3493 86.216 68.52 84.936C69.032 81.096 69.416 77.512 69.672 74.184C70.0133 70.856 70.184 67.7413 70.184 64.84C70.184 63.6453 70.1413 62.4933 70.056 61.384C70.056 60.2747 70.0133 59.208 69.928 58.184C65.6613 59.976 62.2053 61.384 59.56 62.408C56.9147 63.432 55.1227 64.1147 54.184 64.456C48.296 66.504 43.1333 67.528 38.696 67.528C35.1973 67.528 32.1253 66.504 29.48 64.456C26.92 62.3227 25.64 59.5493 25.64 56.136C25.64 54.5147 25.896 52.8933 26.408 51.272C27.0053 49.5653 27.816 47.816 28.84 46.024C29.2667 45.4267 29.6933 45.128 30.12 45.128C30.4613 45.128 30.632 45.3413 30.632 45.768C30.632 45.768 30.0347 46.8773 28.84 49.096C28.2427 50.0347 27.816 51.016 27.56 52.04C27.3893 52.9787 27.304 53.9173 27.304 54.856C27.304 59.8907 30.376 62.408 36.52 62.408C38.4827 62.408 40.8293 62.1947 43.56 61.768C46.376 61.3413 49.5333 60.5733 53.032 59.464L69.288 54.216C67.752 45.4267 63.9973 41.032 58.024 41.032C57.6827 41.032 57.3413 41.032 57 41.032C56.744 41.032 56.4453 41.0747 56.104 41.16C58.408 42.184 59.56 44.0187 59.56 46.664C59.56 49.1387 58.792 50.76 57.256 51.528C56.488 46.408 53.928 44.0187 49.576 44.36C50.9413 41.288 53.8 39.752 58.152 39.752C65.064 39.752 69.5867 44.36 71.72 53.576C80.424 51.016 87.9333 49.736 94.248 49.736C94.5893 49.736 94.9307 49.736 95.272 49.736C95.6987 49.736 96.0827 49.7787 96.424 49.864C101.715 45.0853 106.664 42.696 111.272 42.696C113.32 42.696 115.411 43.464 117.544 45C119.677 46.28 120.744 47.944 120.744 49.992C120.744 51.528 120.36 52.296 119.592 52.296C119.421 52.296 118.312 51.0587 116.264 48.584C114.387 46.1093 112.04 44.872 109.224 44.872C105.555 44.872 102.056 46.5787 98.728 49.992C108.285 50.5893 116.136 53.1493 122.28 57.672C129.533 63.048 133.16 70.2587 133.16 79.304C133.16 84.3387 131.667 89.3307 128.68 94.28C122.195 105.032 110.76 111.944 94.376 115.016C96.0827 119.795 98.5573 124.488 101.8 129.096C105.128 133.619 109.181 138.056 113.96 142.408C123.859 151.368 132.861 155.848 140.968 155.848C146.941 155.848 149.928 153.416 149.928 148.552C149.928 148.04 149.8 147.315 149.544 146.376C149.373 145.437 149.288 144.797 149.288 144.456C149.288 144.2 149.373 144.072 149.544 144.072C150.227 144.072 150.696 144.968 150.952 146.76C151.123 147.443 151.251 148.04 151.336 148.552C151.507 149.149 151.592 149.661 151.592 150.088C151.592 155.123 148.563 157.64 142.504 157.64H141.608C141.352 157.555 141.053 157.512 140.712 157.512C139.261 157.512 138.536 158.024 138.536 159.048C138.536 159.56 138.749 160.328 139.176 161.352C139.603 162.376 139.816 163.059 139.816 163.4C139.816 163.827 139.603 164.04 139.176 164.04ZM69.288 113.48C70.2267 110.493 71.1227 107.293 71.976 103.88C72.9147 100.467 73.8107 96.7973 74.664 92.872C78.9307 74.7813 85.544 61.0427 94.504 51.656C91.6027 51.7413 88.2747 52.2533 84.52 53.192C80.8507 54.1307 76.7973 55.4533 72.36 57.16C72.5307 58.5253 72.6587 59.8907 72.744 61.256C72.8293 62.6213 72.872 64.1147 72.872 65.736C72.872 68.9787 72.6587 72.52 72.232 76.36C71.8907 80.2 71.2933 84.2533 70.44 88.52C69.7573 92.1893 68.9467 95.9867 68.008 99.912C67.0693 103.837 65.9173 107.976 64.552 112.328L69.288 113.48ZM79.4 114.632C80.8507 114.632 82.2587 114.589 83.624 114.504C85.0747 114.419 86.4827 114.291 87.848 114.12C87.336 112.072 87.08 110.152 87.08 108.36C87.08 107.677 87.1653 106.909 87.336 106.056C87.592 104.947 88.3173 103.453 89.512 101.576C90.792 99.6133 91.9013 98.632 92.84 98.632C93.352 98.632 93.736 98.9733 93.992 99.656C93.0533 101.533 92.584 103.581 92.584 105.8C92.584 106.909 92.6693 108.104 92.84 109.384C93.096 110.579 93.4373 111.816 93.864 113.096C107.603 110.28 117.288 103.667 122.92 93.256C125.48 88.648 126.76 83.912 126.76 79.048C126.76 70.6 123.816 63.9013 117.928 58.952C112.552 54.344 105.597 51.912 97.064 51.656C92.6267 57.288 88.232 67.1013 83.88 81.096C83.5387 82.12 82.6 85.4053 81.064 90.952C79.6133 96.4987 77.5653 104.307 74.92 114.376C75.688 114.461 76.456 114.547 77.224 114.632C77.992 114.632 78.7173 114.632 79.4 114.632Z" fill="white"/>
<path d="M251.176 164.04C250.835 164.04 250.323 163.912 249.64 163.656C227.624 155.805 212.136 142.323 203.176 123.208C202.579 122.013 202.067 120.776 201.64 119.496C201.213 118.216 200.787 117.021 200.36 115.912C198.483 116.083 196.648 116.253 194.856 116.424C193.064 116.509 191.272 116.552 189.48 116.552H186.28C181.16 135.155 173.608 146.376 163.624 150.216C161.832 150.899 159.955 151.453 157.992 151.88C156.029 152.307 153.939 152.52 151.72 152.52H151.336C148.179 152.52 146.6 151.24 146.6 148.68C146.6 146.632 147.24 145.608 148.52 145.608C148.691 145.608 149.8 146.376 151.848 147.912C153.896 149.448 155.901 150.216 157.864 150.216C165.8 150.216 173.395 138.824 180.648 116.04L175.656 115.272C171.389 128.755 167.165 137.843 162.984 142.536C162.557 142.963 162.173 143.176 161.832 143.176C161.576 143.176 161.448 142.963 161.448 142.536C161.448 142.195 161.619 141.811 161.96 141.384C163.923 139.08 165.885 135.709 167.848 131.272C169.811 126.835 171.731 121.331 173.608 114.76C167.464 113.053 162.984 110.451 160.168 106.952C158.376 104.477 157.48 101.832 157.48 99.016C157.48 95.688 159.144 92.104 162.472 88.264C165.8 84.424 168.829 82.504 171.56 82.504C172.157 82.504 172.499 82.632 172.584 82.888C172.499 82.888 172.413 82.9307 172.328 83.016C165.16 86.4293 161.576 90.6533 161.576 95.688C161.576 98.248 162.429 100.765 164.136 103.24C166.355 106.568 169.853 109.299 174.632 111.432C175.315 108.872 175.955 106.312 176.552 103.752C177.149 101.107 177.747 98.4613 178.344 95.816C177.832 96.328 177.192 96.8827 176.424 97.48C175.741 98.0773 174.931 98.7173 173.992 99.4C172.456 98.376 171.688 96.7973 171.688 94.664C171.688 93.8107 172.157 92.744 173.096 91.464C174.035 90.0987 174.845 89.416 175.528 89.416C176.296 92.232 177.363 93.8107 178.728 94.152C179.155 92.4453 179.496 90.824 179.752 89.288C180.093 87.6667 180.349 86.216 180.52 84.936C181.032 81.096 181.416 77.512 181.672 74.184C182.013 70.856 182.184 67.7413 182.184 64.84C182.184 63.6453 182.141 62.4933 182.056 61.384C182.056 60.2747 182.013 59.208 181.928 58.184C177.661 59.976 174.205 61.384 171.56 62.408C168.915 63.432 167.123 64.1147 166.184 64.456C160.296 66.504 155.133 67.528 150.696 67.528C147.197 67.528 144.125 66.504 141.48 64.456C138.92 62.3227 137.64 59.5493 137.64 56.136C137.64 54.5147 137.896 52.8933 138.408 51.272C139.005 49.5653 139.816 47.816 140.84 46.024C141.267 45.4267 141.693 45.128 142.12 45.128C142.461 45.128 142.632 45.3413 142.632 45.768C142.632 45.768 142.035 46.8773 140.84 49.096C140.243 50.0347 139.816 51.016 139.56 52.04C139.389 52.9787 139.304 53.9173 139.304 54.856C139.304 59.8907 142.376 62.408 148.52 62.408C150.483 62.408 152.829 62.1947 155.56 61.768C158.376 61.3413 161.533 60.5733 165.032 59.464L181.288 54.216C179.752 45.4267 175.997 41.032 170.024 41.032C169.683 41.032 169.341 41.032 169 41.032C168.744 41.032 168.445 41.0747 168.104 41.16C170.408 42.184 171.56 44.0187 171.56 46.664C171.56 49.1387 170.792 50.76 169.256 51.528C168.488 46.408 165.928 44.0187 161.576 44.36C162.941 41.288 165.8 39.752 170.152 39.752C177.064 39.752 181.587 44.36 183.72 53.576C192.424 51.016 199.933 49.736 206.248 49.736C206.589 49.736 206.931 49.736 207.272 49.736C207.699 49.736 208.083 49.7787 208.424 49.864C213.715 45.0853 218.664 42.696 223.272 42.696C225.32 42.696 227.411 43.464 229.544 45C231.677 46.28 232.744 47.944 232.744 49.992C232.744 51.528 232.36 52.296 231.592 52.296C231.421 52.296 230.312 51.0587 228.264 48.584C226.387 46.1093 224.04 44.872 221.224 44.872C217.555 44.872 214.056 46.5787 210.728 49.992C220.285 50.5893 228.136 53.1493 234.28 57.672C241.533 63.048 245.16 70.2587 245.16 79.304C245.16 84.3387 243.667 89.3307 240.68 94.28C234.195 105.032 222.76 111.944 206.376 115.016C208.083 119.795 210.557 124.488 213.8 129.096C217.128 133.619 221.181 138.056 225.96 142.408C235.859 151.368 244.861 155.848 252.968 155.848C258.941 155.848 261.928 153.416 261.928 148.552C261.928 148.04 261.8 147.315 261.544 146.376C261.373 145.437 261.288 144.797 261.288 144.456C261.288 144.2 261.373 144.072 261.544 144.072C262.227 144.072 262.696 144.968 262.952 146.76C263.123 147.443 263.251 148.04 263.336 148.552C263.507 149.149 263.592 149.661 263.592 150.088C263.592 155.123 260.563 157.64 254.504 157.64H253.608C253.352 157.555 253.053 157.512 252.712 157.512C251.261 157.512 250.536 158.024 250.536 159.048C250.536 159.56 250.749 160.328 251.176 161.352C251.603 162.376 251.816 163.059 251.816 163.4C251.816 163.827 251.603 164.04 251.176 164.04ZM181.288 113.48C182.227 110.493 183.123 107.293 183.976 103.88C184.915 100.467 185.811 96.7973 186.664 92.872C190.931 74.7813 197.544 61.0427 206.504 51.656C203.603 51.7413 200.275 52.2533 196.52 53.192C192.851 54.1307 188.797 55.4533 184.36 57.16C184.531 58.5253 184.659 59.8907 184.744 61.256C184.829 62.6213 184.872 64.1147 184.872 65.736C184.872 68.9787 184.659 72.52 184.232 76.36C183.891 80.2 183.293 84.2533 182.44 88.52C181.757 92.1893 180.947 95.9867 180.008 99.912C179.069 103.837 177.917 107.976 176.552 112.328L181.288 113.48ZM191.4 114.632C192.851 114.632 194.259 114.589 195.624 114.504C197.075 114.419 198.483 114.291 199.848 114.12C199.336 112.072 199.08 110.152 199.08 108.36C199.08 107.677 199.165 106.909 199.336 106.056C199.592 104.947 200.317 103.453 201.512 101.576C202.792 99.6133 203.901 98.632 204.84 98.632C205.352 98.632 205.736 98.9733 205.992 99.656C205.053 101.533 204.584 103.581 204.584 105.8C204.584 106.909 204.669 108.104 204.84 109.384C205.096 110.579 205.437 111.816 205.864 113.096C219.603 110.28 229.288 103.667 234.92 93.256C237.48 88.648 238.76 83.912 238.76 79.048C238.76 70.6 235.816 63.9013 229.928 58.952C224.552 54.344 217.597 51.912 209.064 51.656C204.627 57.288 200.232 67.1013 195.88 81.096C195.539 82.12 194.6 85.4053 193.064 90.952C191.613 96.4987 189.565 104.307 186.92 114.376C187.688 114.461 188.456 114.547 189.224 114.632C189.992 114.632 190.717 114.632 191.4 114.632Z" fill="white"/>
</svg>
